<svg xmlns="http://www.w3.org/2000/svg" width="99.997" height="99.997" viewBox="0 0 66 66">
  <defs>
    <style>
      .cls-1 {
        fill: #ffb503;
      }

      .cls-1, .cls-2, .cls-3 {
        fill-rule: evenodd;
      }

      .cls-2 {
        fill: #e24014;
      }

      .cls-3 {
        fill: #4d4d4d;
      }
    </style>
  </defs>
  <path class="cls-1" d="M1118.44,940.814l-9.77,28.519,26.89-11-4.89-8.556Z" transform="translate(-1072 -940)"/>
  <path class="cls-2" d="M1111.11,952.222l1.22-4.889-6.11-1.222h-8.55l-11,3.666-8.56,8.556-4.89,9.777v9.779l2.45,11,11,11,11,5.292,13.44-1.62,11-6.116,6.11-8.555,4.89-12.223-2.44-11-4.89,2.444,1.22,2.445v4.889l-1.22,7.333-4.89,7.334-2.45,2.444-8.55,4.889-8.56,1.222-8.55-2.444-6.11-3.667-2.45-3.666-4.89-6.112-1.22-7.333,1.22-6.111,2.45-8.556,7.33-6.111,6.11-3.667h11Z" transform="translate(-1072 -940)"/>
  <path id="Forma_1" data-name="Forma 1" class="cls-3" d="M1079.84,975.273a22.914,22.914,0,0,1,22.89-22.884,1.069,1.069,0,1,0,0-2.138,25.055,25.055,0,0,0-25.03,25.022,24.785,24.785,0,0,0,5.37,15.491,1.076,1.076,0,0,0,.84.407,1.071,1.071,0,0,0,.84-1.732A22.664,22.664,0,0,1,1079.84,975.273Zm46.84-1.069a1.07,1.07,0,0,0-1.07,1.069,22.888,22.888,0,0,1-37.71,17.436,1.067,1.067,0,0,0-1.38,1.629,25.019,25.019,0,0,0,41.23-19.065A1.07,1.07,0,0,0,1126.68,974.2Zm3.62-9.913-25.81,9.216,9.22-25.806a1.067,1.067,0,0,0-.65-1.367,30.731,30.731,0,1,0,18.6,18.6A1.062,1.062,0,0,0,1130.3,964.291Zm-27.57,39.569a28.587,28.587,0,1,1,8.6-55.852l-1.2,3.357a24.968,24.968,0,0,0-2.64-.661,1.069,1.069,0,1,0-.4,2.1,23.263,23.263,0,0,1,2.32.579l-7.69,21.531a1.069,1.069,0,0,0,1.37,1.366l21.53-7.689c0.23,0.763.42,1.541,0.58,2.322a1.055,1.055,0,0,0,1.04.867,1.149,1.149,0,0,0,.21-0.02,1.071,1.071,0,0,0,.85-1.252,26.742,26.742,0,0,0-.67-2.638l3.36-1.2A28.6,28.6,0,0,1,1102.73,1003.86Zm23.55-52.921a1.07,1.07,0,0,0-1.48,1.546,20.381,20.381,0,0,1,1.69,1.8,1.09,1.09,0,0,0,.82.38,1.059,1.059,0,0,0,.69-0.25,1.072,1.072,0,0,0,.13-1.507A25.377,25.377,0,0,0,1126.28,950.939Zm11.66,7.726a30.822,30.822,0,0,0-18.61-18.6,1.067,1.067,0,0,0-1.36.647l-9.98,27.932a1.072,1.072,0,0,0,.25,1.116,1.078,1.078,0,0,0,1.12.251l22.54-8.049h0l5.39-1.926a1.062,1.062,0,0,0,.61-0.549A1.1,1.1,0,0,0,1137.94,958.665Zm-5.78.927a24.051,24.051,0,0,0-1.52-3.106,1.069,1.069,0,1,0-1.85,1.071,23.325,23.325,0,0,1,1.36,2.755l-19.38,6.922,6.92-19.381a23.169,23.169,0,0,1,3.84,2.026,1.068,1.068,0,1,0,1.17-1.788,24.691,24.691,0,0,0-4.29-2.251l1.21-3.386a28.714,28.714,0,0,1,15.93,15.93Zm-39.08,15.077a1.069,1.069,0,1,0-1.85-1.071,1.211,1.211,0,1,1-1.05-1.818,1.07,1.07,0,1,0,0-2.139A3.351,3.351,0,1,0,1093.08,974.669Zm29.27-16.289a1.067,1.067,0,0,0-1.46.389,1.215,1.215,0,1,1-1.05-1.817,1.07,1.07,0,0,0,0-2.139,3.351,3.351,0,1,0,2.9,5.028A1.075,1.075,0,0,0,1122.35,958.38Zm-10.19,31.664a3.366,3.366,0,0,0,2.9-1.673,1.069,1.069,0,0,0-1.85-1.072,1.215,1.215,0,1,1-1.05-1.818,1.069,1.069,0,1,0,0-2.138A3.351,3.351,0,0,0,1112.16,990.044Zm-11.81-3.9a1.2,1.2,0,0,1-1.05.606,1.212,1.212,0,0,1,0-2.424,1.069,1.069,0,1,0,0-2.138,3.351,3.351,0,1,0,2.91,5.028A1.073,1.073,0,0,0,1100.35,986.145Zm-2.19-25.771a1.07,1.07,0,1,0,0-2.139,3.351,3.351,0,1,0,2.9,5.028,1.058,1.058,0,0,0-.39-1.461,1.069,1.069,0,0,0-1.46.389A1.211,1.211,0,1,1,1098.16,960.374Zm-4.17,7.3a1.066,1.066,0,0,0,0,1.513l2.28,2.281a1.068,1.068,0,1,0,1.51-1.512l-2.28-2.282A1.068,1.068,0,0,0,1093.99,967.673Zm-5.34-1.909a1.069,1.069,0,0,0-1.51-1.513l-1.14,1.141a1.068,1.068,0,1,0,1.51,1.512Zm-0.37,16.738-1.14,1.141a1.068,1.068,0,1,0,1.51,1.512l1.14-1.141A1.068,1.068,0,0,0,1088.28,982.5Zm17.87-1.583h2.28a1.07,1.07,0,1,0,0-2.139h-2.28A1.07,1.07,0,1,0,1106.15,980.919Zm13.69-3.435a1.06,1.06,0,0,0,.75-0.314l1.14-1.14a1.069,1.069,0,0,0-1.51-1.513l-1.14,1.141A1.07,1.07,0,0,0,1119.84,977.484Zm-1.9,7.685a1.069,1.069,0,1,0,1.51-1.513l-1.14-1.14a1.068,1.068,0,1,0-1.51,1.512Zm-14.07,9.424a1.059,1.059,0,0,0,.75-0.313l1.14-1.141a1.068,1.068,0,1,0-1.51-1.512l-1.14,1.141A1.069,1.069,0,0,0,1103.87,994.593Zm-6.85-15.955a1.07,1.07,0,1,0,0-2.139h-1.14a1.07,1.07,0,1,0,0,2.139h1.14Zm23.2-25.421a1.069,1.069,0,0,0,1.51-1.513l-1.14-1.14a1.068,1.068,0,0,0-1.51,1.512Zm5.32,2.751a1.07,1.07,0,0,0-1.07,1.069V959.3a1.07,1.07,0,0,0,2.14,0v-2.267A1.07,1.07,0,0,0,1125.54,955.968Zm-31.55,36.044a1.042,1.042,0,0,0,.75.313,1.069,1.069,0,0,0,.76-1.825l-1.14-1.141a1.072,1.072,0,1,0-1.52,1.513Zm20.14-14.515a1.07,1.07,0,0,0,1.07-1.069v-1.141a1.07,1.07,0,0,0-2.14,0v1.141A1.07,1.07,0,0,0,1114.13,977.5Zm-27.76-.685-1.14-1.14a1.068,1.068,0,1,0-1.51,1.512l1.14,1.141A1.069,1.069,0,0,0,1086.37,976.812ZM1102.8,955.9v1.141a1.07,1.07,0,0,0,2.14,0V955.9A1.07,1.07,0,0,0,1102.8,955.9Z" transform="translate(-1072 -940)"/>
</svg>
