<svg xmlns="http://www.w3.org/2000/svg" width="100.036" height="82.926" viewBox="0 0 82.03 68">
  <defs>
    <style>
      .cls-1 {
        fill: #ffb503;
      }

      .cls-1, .cls-2, .cls-3 {
        fill-rule: evenodd;
      }

      .cls-2 {
        fill: #e24014;
      }

      .cls-3 {
        fill: #4d4d4d;
      }
    </style>
  </defs>
  <path class="cls-1" d="M1200.28,952.83l2.56,3.849,1.28,6.415,1.29,2.566h35.87v-2.566l2.56-2.566,2.57-2.566,2.56-1.283,1.28-2.566-1.28-1.283-3.85-1.284-2.56,2.567L1240,955.4l-1.28-1.283V947.7h-3.85l-2.56-2.566s1.03-1.539,0-2.566-1.28-1.283-1.28-1.283a2.078,2.078,0,0,0-2.56,0,52.532,52.532,0,0,0-3.85,3.849v1.283l-1.28,2.567h-2.56s0-1.284-1.28,1.282-2.56,1.283-2.56,1.283v-6.415l-2.57-1.283-2.56-1.283-1.28,3.849v5.132l-1.28,1.284h-2.56l-1.28-2.567-1.29-1.282h-2.56Z" transform="translate(-1199 -940)"/>
  <path class="cls-2" d="M1231.03,984.905l1.28,3.849,3.85,2.566L1240,992.6l3.84-1.283h3.85l3.84,2.566h3.84l2.57-1.283,3.84-1.283h2.56l3.85,1.283s4.1,1.283,5.12,0,2.82-1.539,3.85-2.566,2.56-2.566,2.56-2.566v-2.566l-1.28-1.283s0.51,2.31-3.85,2.566a36.148,36.148,0,0,0-7.68,1.283h-11.54c-1.28,0-7.68-1.283-7.68-1.283l-5.13,1.283s-1.79-.513-3.84-1.283a24.806,24.806,0,0,0-5.13-1.283A6.891,6.891,0,0,0,1231.03,984.905Z" transform="translate(-1199 -940)"/>
  <path id="Forma_1" data-name="Forma 1" class="cls-3" d="M1279.13,996.2a4.023,4.023,0,0,0,1.48-3.6,2.917,2.917,0,0,0-1.85-2.356,7.242,7.242,0,0,0,1.8-2.378,4.667,4.667,0,0,0-.09-4.153,1.253,1.253,0,0,0-.44-0.486,5.969,5.969,0,0,0,.54-2.313c0.03-.64.06-1.117,0.09-1.557,0.06-.72.1-1.4,0.1-2.526,0-8.245-10.66-14-25.94-14a48.7,48.7,0,0,0-12.29,1.457l2.92-3.947c0.64-.367,3.74-2.15,5.35-2.876a0.626,0.626,0,0,0,.38-0.62l-0.28-3.805a0.538,0.538,0,0,0-.05-0.176c0-.012-0.01-0.023-0.01-0.035a0.545,0.545,0,0,0-.11-0.154l-0.03-.037a0.552,0.552,0,0,0-.16-0.117l-0.02-.009c-0.01,0-.01-0.006-0.01-0.008l-3.12-1.314a0.661,0.661,0,0,0-.6.043l-6.16,3.737a0.624,0.624,0,0,0-.2.189l-2.15,3.179a23.727,23.727,0,0,1,2.12-7.285,0.689,0.689,0,0,0,.1-0.318,0.616,0.616,0,0,0-.16-0.414l-2-3.363a0.642,0.642,0,0,0-.56-0.315h-3.4a0.642,0.642,0,0,0-.13.016l-0.02,0a0.7,0.7,0,0,0-.23.1,0.029,0.029,0,0,1-.02.011,4.744,4.744,0,0,0-.97,1.189c-0.06-6.1-1.33-7.6-1.49-7.766a0.66,0.66,0,0,0-.62-0.18l-3.33.762a0.6,0.6,0,0,0-.09.041,0.778,0.778,0,0,0-.12.052,0.955,0.955,0,0,0-.09.09,0.378,0.378,0,0,0-.08.065l-1.77,2.421a0.632,0.632,0,0,0-.12.42l0.28,3.328-2.37-.6a0.668,0.668,0,0,0-.56.109,10.132,10.132,0,0,0-3.08,3.966c-0.14.24-.19,0.808-0.13,2.779a51.246,51.246,0,0,0,.41,5.186,62.567,62.567,0,0,0,1.46,7.145c-0.86-.013-1.72-0.037-2.56-0.069a0.606,0.606,0,0,0,.05-0.269L1217.95,945a0.62,0.62,0,0,0-.04-0.192,0.092,0.092,0,0,1-.02-0.047,0.612,0.612,0,0,0-.12-0.164,0.018,0.018,0,0,0-.01-0.019l-3.4-3.321a0.659,0.659,0,0,0-.75-0.119l-2.97,1.452a3.93,3.93,0,0,0-.36,1.136l1.63,19.969c-2.85-13.336-7.12-15.614-7.3-15.708-0.01,0-.02,0-0.03-0.007a0.684,0.684,0,0,0-.24-0.06h-0.02a0.586,0.586,0,0,0-.13.009l-3.34.64a0.648,0.648,0,0,0-.49.414l-1.33,3.781a0.624,0.624,0,0,0-.03.234v0.033a0.671,0.671,0,0,0,.15.354c0.01,0.011.03,0.015,0.04,0.026s0.02,0.027.03,0.038c0.03,0.027,2.88,2.557,4.83,10.885l-0.21-.032a1.31,1.31,0,0,0-1.12.349,1.242,1.242,0,0,0-.37,1.092l4.82,30.968a1.265,1.265,0,0,0,.84,1,51.724,51.724,0,0,0,20.58,2.009,6.63,6.63,0,0,0,.35,2.31c1.85,5.68,22.5,5.97,26.62,5.97,5.68,0,24.29-.44,25.19-6.17,0.34-2.2.04-3.832-.92-4.975A3.811,3.811,0,0,0,1279.13,996.2Zm-24.31-30.837c13.53,0,23.35,4.824,23.35,11.47,0,1.04-.04,1.648-0.09,2.352-0.04.46-.07,0.957-0.1,1.626a3.735,3.735,0,0,1-2.81,3.421c-3.54,1.042-8.33,2.154-20.35,2.154s-16.65-1.064-20.35-2.154a3.724,3.724,0,0,1-2.81-3.421c-0.03-.67-0.07-1.168-0.1-1.629-0.05-.7-0.09-1.311-0.09-2.349C1231.47,970.183,1241.29,965.359,1254.82,965.359Zm21.66,27.153c0.47-.006.63,0,0.93,0,0.53,0.012.6,0.211,0.63,0.431a1.5,1.5,0,0,1-1.02,1.541,21.263,21.263,0,0,1-3.07.5Zm-4.57,2.675c-0.87.076-1.83,0.149-2.86,0.217l1.99-1.936a12.7,12.7,0,0,0,2.55-.448c0.27-.077.54-0.171,0.81-0.268Zm-4.81.336c-0.89.048-1.81,0.094-2.77,0.134l2.52-2.465a14.135,14.135,0,0,0,2.33.3Zm-4.68.206c-0.89.03-1.79,0.058-2.71,0.078l2.77-2.7c0.18-.158.34-0.322,0.5-0.491l0.25-.247a0.633,0.633,0,0,0,.15-0.241c0.07-.094.15-0.185,0.21-0.281a5.775,5.775,0,0,0,.68.432,8.207,8.207,0,0,0,1.16.514Zm-18.04-5.857c-1.41.981-4.23,1.2-7.36,0.573-3.09-.62-4.77-2.125-5.32-3.327a2.232,2.232,0,0,1-.15-1.541,6.9,6.9,0,0,0,2.17,1.076,50.185,50.185,0,0,0,11.52,1.962A1.977,1.977,0,0,1,1244.38,989.872Zm-11.87,4.541a0.941,0.941,0,0,1-.27-0.661c0.01-.269.13-0.9,1.26-0.909l0.56-.016c0.03,0,.06-0.017.09-0.02Zm3.49-1.619c0.17,0.04.32,0.1,0.5,0.131,0.58,0.118,1.16.2,1.72,0.269l-1.6,1.565a0.627,0.627,0,0,0-.14.2c-1.06-.082-1.91-0.146-2.52-0.18Zm3.93,0.522a14.133,14.133,0,0,0,2.83-.191l-2.2,2.146c-0.87-.062-1.69-0.124-2.44-0.182Zm5.44-.949a0.673,0.673,0,0,0,.14-0.217c0.12-.072.26-0.136,0.37-0.215,0.08-.051.15-0.1,0.22-0.158a6.018,6.018,0,0,0,.7.882c0.14,0.15.31,0.286,0.46,0.426l-2.51,2.456c-0.86-.048-1.68-0.1-2.48-0.152Zm16.43-3.261a3.139,3.139,0,0,1-1.67,2.579,10.383,10.383,0,0,1-5.37,1.251h-0.02c-2.59,0-4.85-.748-6.04-2a2.774,2.774,0,0,1-.85-2.165c2.03,0.093,4.33.148,6.97,0.148,2.67,0,4.99-.055,7.04-0.152A1.3,1.3,0,0,0,1261.8,989.106Zm-13.5,4.756a9.965,9.965,0,0,0,1.77.841l-1.06,1.043q-1.29-.049-2.52-0.111Zm3.19,1.248a14.006,14.006,0,0,0,2.3.322l-0.43.424q-1.3-.016-2.58-0.053Zm4.15,0.311a14.985,14.985,0,0,0,3.08-.441l-0.82.8a0.185,0.185,0,0,0-.04.06c-0.56.008-1.12,0.016-1.69,0.02-0.33,0-.66,0-0.99,0Zm-5.79-38.921c-1.92.923-5.04,2.732-5.18,2.814a0.676,0.676,0,0,0-.19.172l-3.68,4.981a0.665,0.665,0,0,0-.12.353c-0.11.035-.22,0.074-0.33,0.11a1.288,1.288,0,0,0-.91-0.233c-0.34.04-.73,0.084-1.14,0.129l5.03-6.78,6.35-3.874Zm-8.42-.532,5.76-3.488,1.67,0.7-6.32,3.857a0.543,0.543,0,0,0-.18.166l-4.58,6.172c0.03-.773.08-1.521,0.14-2.221Zm-5,9.057c-0.65.065-1.34,0.131-2.08,0.2,0.12-2.622.59-10.548,2.26-13.859h2.21C1238.04,953.168,1236.53,957.616,1236.43,965.025Zm0.98-17.121,1.3,2.191h-2.1l-1.16-2.191h1.96Zm-3.16.5,1.24,2.319c-1.85,3.6-2.33,11.89-2.44,14.523l-1.85-.482C1231.16,954.186,1233.25,949.869,1234.25,948.407Zm-3.51-7.055c0.37,0.78,1.2,3.256.91,9.543a36.629,36.629,0,0,0-1.64,9.718l-1.9,2.138c-0.29-.987-0.6-2.186-0.89-3.558a19.352,19.352,0,0,1-.33-2.622c0.63-1.051,3.49-6.479,1.61-14.707Zm-0.84,23.907a0.592,0.592,0,0,0,.09.289c-0.31.019-.62,0.036-0.93,0.053-0.08-.2-0.27-0.688-0.51-1.416l1.37-1.544C1229.9,963.472,1229.9,964.343,1229.9,965.259Zm-2.51-22.332a20.693,20.693,0,0,1-.55,10.515c0.02-.762.04-1.5,0.07-2.2,0.05-1.27.09-2.366,0.04-3.222v-0.046l-0.34-3.985Zm-1.72,6.673c-0.02.49-.04,1.026-0.06,1.6a35.826,35.826,0,0,0,.34,8.25,47.041,47.041,0,0,0,1.65,5.946l-1.54.147a61.007,61.007,0,0,1-1.67-6.551,43.792,43.792,0,0,1-.35-7.724Zm-2.47-1.705,1.87,0.475-1.95,1.987c-0.86-.035-1.49-0.052-1.96-0.052A9.483,9.483,0,0,1,1223.2,947.9Zm-2.06,10.567a47.547,47.547,0,0,1-.42-6.75l2,0.239a42.949,42.949,0,0,0,.39,7.256,63.44,63.44,0,0,0,1.66,6.556c-0.67.013-1.34,0.023-2.01,0.023h-0.1A60.276,60.276,0,0,1,1221.14,958.462Zm-3.63,7.025a0.475,0.475,0,0,0,.04.166q-0.885-.042-1.74-0.1l-1.44-18.02,2.33-1.406Zm-3.73-23.014,2.49,2.431-2.42,1.457-2.22-2.839Zm-2.03,3.292,1.31,1.672,1.42,17.776-1.14-.048Zm-7.09,3.877c1.28,1.252,4.18,5.1,6.23,15.477l-0.08.036c-0.67-.065-1.3-0.132-1.89-0.2-0.83-3.221-2.75-9.964-5.01-12.81Zm-3.19.1,1.92-.369-0.71,2.371-2.06.393Zm-0.59,3.638,2.05-.394c1.97,2.52,3.74,8.546,4.6,11.814-0.82-.1-1.53-0.191-2.1-0.269C1203.98,958.057,1201.98,954.786,1200.88,953.378Zm4.3,13.675c0.88,0.12,2.07.27,3.46,0.423a0.755,0.755,0,0,0,.08.016,0.052,0.052,0,0,1,.02,0,132.549,132.549,0,0,0,14.02.832c4.08,0,8.24-.262,11.66-0.561a13.866,13.866,0,0,0-4.13,4.136c-2.5.165-4.99,0.254-7.39,0.254a100.958,100.958,0,0,1-17.15-1.422Zm4.18,26.906-3.2-20.586a104.574,104.574,0,0,0,16.74,1.309c2.05,0,4.15-.06,6.27-0.177a9.444,9.444,0,0,0-.3,2.325c0,1.124.05,1.8,0.1,2.522,0.03,0.442.07,0.919,0.09,1.561a6.244,6.244,0,0,0,.69,2.62,1.409,1.409,0,0,0-.24.283,4.55,4.55,0,0,0-.18,4.332,0.073,0.073,0,0,1,.02.039l-9.38,9.162c-0.91-.062-1.78-0.145-2.61-0.242l9.63-9.4a0.629,0.629,0,0,0,0-.9,0.664,0.664,0,0,0-.92,0l-10.32,10.079c-0.88-.133-1.69-0.278-2.42-0.424m-1.51-.326c-0.95-.225-1.71-0.433-2.21-0.582v-0.044m12.1,1.92,8.33-8.131a7.78,7.78,0,0,0,1.41,1.418l-0.29.28a3.356,3.356,0,0,0-.92.9l-5.47,5.337a0.7,0.7,0,0,0-.12.186c-0.44.011-.88,0.041-1.32,0.041C1222.78,997.465,1222.24,997.452,1221.71,997.434Zm7.78-.371c-0.01.008-.01,0.017-0.02,0.025a1.341,1.341,0,0,0-.19.006c-0.92.117-1.85,0.2-2.79,0.263l3.2-3.13a3.526,3.526,0,0,0,.86,1.838A4.288,4.288,0,0,0,1229.49,997.063Zm48.69,4.387c-0.26,1.68-8.27,4.02-22.62,4.02-14.86,0-23.58-2.45-24.15-4.21a2.943,2.943,0,0,1,.18-2.7,2.8,2.8,0,0,1,2.29-.894h0.17c0.49,0.016,1.64.128,3.09,0.27,4.05,0.4,10.84,1.06,17.49,1.06h0.41c6.09-.025,12.03-0.6,15.96-0.985,2.15-.209,3.82-0.375,4.48-0.344a3.213,3.213,0,0,1,2.35.794C1278.29,999.007,1278.41,1000.01,1278.18,1001.45Zm0-14.6c-0.67,1.506-2.81,3.01-5.33,3.744a10.842,10.842,0,0,1-7.3-.519,2.24,2.24,0,0,1-1.19-1.279,1.03,1.03,0,0,0-.06-0.172,50.44,50.44,0,0,0,11.62-1.97,6.96,6.96,0,0,0,2.42-1.266A2.205,2.205,0,0,1,1278.18,986.849Zm-35.39-14.671a0.674,0.674,0,0,0,.38-0.12l1.32-.932a0.625,0.625,0,0,0,.15-0.884,0.663,0.663,0,0,0-.91-0.143l-1.32.933a0.624,0.624,0,0,0-.15.884A0.667,0.667,0,0,0,1242.79,972.178Zm-8.42,2.842a0.676,0.676,0,0,0,.39.127,0.656,0.656,0,0,0,.52-0.253l0.98-1.274a0.624,0.624,0,0,0-.13-0.886,0.66,0.66,0,0,0-.91.126l-0.98,1.274A0.633,0.633,0,0,0,1234.37,975.02Zm40.34-.126a0.671,0.671,0,0,0,.52.253,0.654,0.654,0,0,0,.39-0.127,0.617,0.617,0,0,0,.13-0.887l-0.98-1.274a0.66,0.66,0,0,0-.91-0.127,0.635,0.635,0,0,0-.13.888Zm-16.36-1.414a0.667,0.667,0,0,0,.38-0.12l1.32-.932a0.624,0.624,0,0,0,.15-0.884,0.664,0.664,0,0,0-.91-0.143l-1.32.933a0.633,0.633,0,0,0-.15.884A0.664,0.664,0,0,0,1258.35,973.48Zm-10.13.045a0.151,0.151,0,0,0,.03,0,0.634,0.634,0,0,0,.62-0.659l-0.07-1.591a0.646,0.646,0,0,0-1.29.053l0.07,1.592A0.636,0.636,0,0,0,1248.22,973.525Zm18.67-3.537a0.634,0.634,0,0,0,.39.128,0.669,0.669,0,0,0,.52-0.251,0.626,0.626,0,0,0-.13-0.887l-1.3-.963a0.66,0.66,0,0,0-.91.121,0.618,0.618,0,0,0,.13.888Zm-0.7,2.715a0.639,0.639,0,0,0,.59.687l1.62,0.143,0.06,0a0.632,0.632,0,0,0,.06-1.263l-1.63-.144A0.645,0.645,0,0,0,1266.19,972.7Zm-2.95-.533h0.03a0.633,0.633,0,0,0,.62-0.659l-0.07-1.591a0.64,0.64,0,0,0-.67-0.607,0.633,0.633,0,0,0-.62.658l0.07,1.592A0.636,0.636,0,0,0,1263.24,972.17Zm-11.88-2.073a0.624,0.624,0,0,0-.32.84l0.68,1.447a0.657,0.657,0,0,0,.59.369,0.669,0.669,0,0,0,.28-0.058,0.629,0.629,0,0,0,.31-0.841l-0.68-1.447A0.657,0.657,0,0,0,1251.36,970.1Zm19.33,2.113a0.654,0.654,0,0,0,.63.479,0.727,0.727,0,0,0,.16-0.018,0.628,0.628,0,0,0,.47-0.769l-0.4-1.571a0.654,0.654,0,0,0-.79-0.46,0.635,0.635,0,0,0-.47.768Zm-15.46-1.2h0.03a0.629,0.629,0,0,0,.62-0.655l-0.05-1.593a0.652,0.652,0,0,0-.67-0.61,0.643,0.643,0,0,0-.63.655l0.06,1.593A0.638,0.638,0,0,0,1255.23,971.014Zm-17.39.718a0.674,0.674,0,0,0,.38-0.12l1.32-.933a0.624,0.624,0,0,0,.15-0.884,0.665,0.665,0,0,0-.91-0.142l-1.32.932a0.633,0.633,0,0,0-.15.884A0.665,0.665,0,0,0,1237.84,971.732Zm7.07-2.8,1.63,0.073h0.03a0.633,0.633,0,0,0,.03-1.266l-1.63-.073a0.626,0.626,0,0,0-.68.6A0.637,0.637,0,0,0,1244.91,968.934Zm-6.36,4.73a0.644,0.644,0,0,0,.62.662l1.63,0.074h0.03a0.634,0.634,0,1,0,.03-1.267l-1.63-.073A0.632,0.632,0,0,0,1238.55,973.664Zm11.95-4.969a0.637,0.637,0,0,0,.25-0.049l1.51-.613a0.629,0.629,0,0,0,.35-0.829,0.66,0.66,0,0,0-.85-0.341l-1.51.614a0.636,0.636,0,0,0-.35.829A0.663,0.663,0,0,0,1250.5,968.7Zm9.51,0.694a0.651,0.651,0,0,0,.9-0.132,0.615,0.615,0,0,0-.13-0.886l-1.31-.949a0.663,0.663,0,0,0-.91.132,0.626,0.626,0,0,0,.14.886Z" transform="translate(-1199 -940)"/>
</svg>
