<svg xmlns="http://www.w3.org/2000/svg" width="99.953" height="101.563" viewBox="0 0 63.97 65">
  <defs>
    <style>
      .cls-1 {
        fill: #ffb503;
      }

      .cls-2 {
        fill: #e24014;
      }

      .cls-2, .cls-3 {
        fill-rule: evenodd;
      }

      .cls-3 {
        fill: #4d4d4d;
      }
    </style>
  </defs>
  <circle class="cls-1" cx="31.99" cy="39.25" r="8.61"/>
  <path class="cls-2" d="M1514.11,961.886l-7.38,8.585-2.46,4.906,1.23,3.679,15.99,1.227,2.46-4.906-3.69-7.359Z" transform="translate(-1503.03 -930)"/>
  <path id="Forma_1" data-name="Forma 1" class="cls-3" d="M1507.39,980.435h12.79a4.31,4.31,0,0,0,3.79-2.186,4.2,4.2,0,0,0-.02-4.286l-6.39-10.888a4.39,4.39,0,0,0-7.55,0l-6.39,10.888a4.2,4.2,0,0,0-.02,4.286A4.31,4.31,0,0,0,1507.39,980.435Zm-1.84-5.338,6.39-10.888a2.154,2.154,0,0,1,3.69,0l6.39,10.888a1.987,1.987,0,0,1,.01,2.038,2.113,2.113,0,0,1-1.85,1.059h-12.79a2.116,2.116,0,0,1-1.85-1.059A1.987,1.987,0,0,1,1505.55,975.1Zm-1.4,14.3h4.49V995h6.73v-5.6h40.41V995h6.73v-5.6H1567v-7.844h-62.85V989.4Zm8.98,3.362h-2.25V989.4h2.25v3.362Zm47.14,0h-2.25V989.4h2.25v3.362Zm-53.88-8.965h58.37v3.362h-58.37V983.8Zm19.08-14.566v1.12a10.105,10.105,0,0,0,20.21,0v-1.12A10.105,10.105,0,0,0,1525.47,969.23Zm17.96,0v1.12a7.855,7.855,0,0,1-15.71,0v-1.12A7.855,7.855,0,0,1,1543.43,969.23Zm20.21-10.085h-13.47a3.369,3.369,0,0,0-3.37,3.362v14.567a3.368,3.368,0,0,0,3.37,3.361h13.47a3.366,3.366,0,0,0,3.36-3.361V962.507A3.366,3.366,0,0,0,1563.64,959.145Zm1.12,17.929a1.126,1.126,0,0,1-1.12,1.12h-13.47a1.128,1.128,0,0,1-1.13-1.12V962.507a1.128,1.128,0,0,1,1.13-1.121h13.47a1.126,1.126,0,0,1,1.12,1.121v14.567Zm-52.9-1.121h3.85a2.126,2.126,0,0,0,1.83-1.052,2.062,2.062,0,0,0,.04-1.986l-1.9-4.847-0.08-.159a2.082,2.082,0,0,0-1.81-1.035h0a2.085,2.085,0,0,0-1.82,1.036l-1.97,5a2.035,2.035,0,0,0,.04,1.986A2.1,2.1,0,0,0,1511.86,975.953Zm1.93-6.562,1.69,4.321h-3.39Zm16.17,0.4a5.639,5.639,0,1,0,5.61-6.163A5.915,5.915,0,0,0,1529.96,969.79Zm8.98,0a3.4,3.4,0,1,1-3.37-3.922A3.68,3.68,0,0,1,1538.94,969.79Zm-3.37-1.681a1.751,1.751,0,1,1-2.24,1.681A2.031,2.031,0,0,1,1535.57,968.109Zm25.82-5.6h-8.98a2.24,2.24,0,0,0-2.24,2.241v10.084a2.241,2.241,0,0,0,2.24,2.242h8.98a2.249,2.249,0,0,0,2.25-2.242V964.748A2.249,2.249,0,0,0,1561.39,962.507Zm0,12.325h-8.98V964.748h8.98v10.084Zm-6.73-5.6a1.129,1.129,0,0,0,.79-0.328l1.12-1.121a1.122,1.122,0,1,0-1.59-1.584l-1.12,1.12a1.117,1.117,0,0,0,0,1.585A1.13,1.13,0,0,0,1554.66,969.23Zm0.32,4.154a1.13,1.13,0,0,0,.8.328,1.121,1.121,0,0,0,.79-1.913l-1.12-1.12a1.122,1.122,0,0,0-1.59,1.584Zm2.25-2.241a1.127,1.127,0,0,0,1.59,0l1.12-1.121a1.122,1.122,0,0,0-1.59-1.584l-1.12,1.12A1.117,1.117,0,0,0,1557.23,971.143Zm-38.92-15.36a1.093,1.093,0,0,0,.32-0.049l4.88-1.484-4.27,2.843a1.12,1.12,0,0,0,.62,2.052,1.122,1.122,0,0,0,.62-0.188l10.49-6.977,34.12-10.388a1.121,1.121,0,0,0-.66-2.142l-26.98,8.213,23.44-15.6a1.12,1.12,0,0,0-1.24-1.865l-29.66,19.734-12.01,3.659A1.118,1.118,0,0,0,1518.31,955.783Z" transform="translate(-1503.03 -930)"/>
</svg>
