<svg xmlns="http://www.w3.org/2000/svg" width="102.56" height="75.94" viewBox="0 0 102.56 75.94">
  <defs>
    <style>
      .cls-1 {
        fill: #ffb503;
      }

      .cls-1, .cls-2, .cls-3 {
        fill-rule: evenodd;
      }

      .cls-2 {
        fill: #e24014;
      }

      .cls-3 {
        fill: #4d4d4d;
      }
    </style>
  </defs>
  <path id="Shape_1_copy_2" data-name="Shape 1 copy 2" class="cls-1" d="M1206.16,2222.53c-4.41.2-10.25-5.12-10.46-9.53s4.16-9.2,8.57-9.41,9.2,4.16,9.41,8.57S1210.56,2222.32,1206.16,2222.53Z" transform="translate(-1122.72 -2160.53)"/>
  <path id="Shape_1_copy" data-name="Shape 1 copy" class="cls-2" d="M1135,2198v-12l87-4v12Z" transform="translate(-1122.72 -2160.53)"/>
  <path id="Shape_1_copy_3" data-name="Shape 1 copy 3" class="cls-2" d="M1200.12,2221.81c-7.6,2.82-11.14-2.62-11.41-8.48-0.27-5.81,4.16-9.95,10.61-8.5-2.5,2.53-3.76,5.15-3.62,8.17A12.8,12.8,0,0,0,1200.12,2221.81Z" transform="translate(-1122.72 -2160.53)"/>
  <path class="cls-3" d="M1215.86,2173.02l-3,.14-0.23-5a8.114,8.114,0,0,0-8.37-7.61l-73.92,3.45a8.168,8.168,0,0,0-7.61,8.42l2.1,45.05a7.862,7.862,0,0,0,8.2,7.49l2.16-.12,0.18,4a8.121,8.121,0,0,0,8.37,7.61l73.92-3.45a7.719,7.719,0,0,0,7.63-8.03l-2.1-45.05C1222.98,2175.59,1220.17,2172.82,1215.86,2173.02Zm-82.54,11.86,1.77,37.96s-7.97.85-8.27-5.62l-2.1-44.95c-0.09-1.89,1.77-6.09,5.72-6.27l73.92-3.46c4.03-.18,6.13,2.83,6.22,4.72l0.28,5.99-69.92,3.27A8.114,8.114,0,0,0,1133.32,2184.88Zm89.96,39.85c0.19,4.14-3.84,6.18-5.72,6.27l-73.92,3.46c-1.88.08-6.06-1.3-6.27-5.72l-1.4-29.97,85.91-4.01Zm-87.4-27.95-0.47-9.99,85.91-4.01,0.46,9.98Zm-0.56-11.99-0.05-1c-0.15-3.2,2.88-5.14,4.76-5.23l76.92-3.59a4.5,4.5,0,0,1,4.18,3.81l0.09,2Zm69,17.92a10.114,10.114,0,0,1-7.95.37c-5.61.26-8.96,5-8.69,10.63s3.93,10.5,9.53,10.23a11.415,11.415,0,0,0,4.05-1.46,15.237,15.237,0,0,0,4.94,1.04c5.61-.26,9.03-5.46,8.77-11.09A10.214,10.214,0,0,0,1204.32,2202.71Zm-5.2,19.14c-5.97.28-9.19-3.83-9.41-8.56s3.02-8.16,8.61-8.42c-2.51,2.4-3.77,4.86-3.62,8.18C1194.95,2218.34,1197.36,2220.25,1199.12,2221.85Zm6.99-.32c-4.41.2-9.21-4.16-9.41-8.57a8,8,0,0,1,15.99-.75C1212.89,2216.62,1210.52,2221.32,1206.11,2221.53Zm-36.92-12.29-22.55,1.05a1.957,1.957,0,0,0-2.02,2.1,1.859,1.859,0,0,0,2.09,1.9l22.97-1.07a1.876,1.876,0,0,0,1.91-2.09A2.121,2.121,0,0,0,1169.19,2209.24Zm10.71,8.51-32.96,1.53a2,2,0,0,0,.19,4l32.96-1.54A2,2,0,1,0,1179.9,2217.75Z" transform="translate(-1122.72 -2160.53)"/>
</svg>
