<svg xmlns="http://www.w3.org/2000/svg" width="118.12" height="80" viewBox="0 0 118.12 80">
  <defs>
    <style>
      .cls-1 {
        fill: #ffb503;
      }

      .cls-1, .cls-2, .cls-3 {
        fill-rule: evenodd;
      }

      .cls-2 {
        fill: #e24014;
      }

      .cls-3 {
        fill: #4d4d4d;
      }
    </style>
  </defs>
  <path id="Shape_22_copy" data-name="Shape 22 copy" class="cls-1" d="M1467,2157l-46,14,33,33Z" transform="translate(-1414.94 -2151)"/>
  <path id="Shape_23_copy" data-name="Shape 23 copy" class="cls-2" d="M1479,2153v8l23.03,3.54L1481,2190l3,14,40.85-29.74Z" transform="translate(-1414.94 -2151)"/>
  <path id="Forma_1_copy_3" data-name="Forma 1 copy 3" class="cls-3" d="M1474.46,2177.24a4.814,4.814,0,0,0,3.25-1.26,4.676,4.676,0,0,0,.27-6.68,4.855,4.855,0,0,0-6.78-.27,4.688,4.688,0,0,0-.27,6.69A4.878,4.878,0,0,0,1474.46,2177.24Zm-2.35-7.33a3.584,3.584,0,0,1,5,.2,3.409,3.409,0,0,1,.93,2.5,3.516,3.516,0,0,1-3.52,3.35,3.592,3.592,0,0,1-2.62-1.13A3.445,3.445,0,0,1,1472.11,2169.91ZM1445,2172a6,6,0,0,0,0,12c4.09,0,6-2.44,6-6A5.757,5.757,0,0,0,1445,2172Zm-0.02,10.01a4.015,4.015,0,1,1,3.99-4.01A4.016,4.016,0,0,1,1444.98,2182.01ZM1533,2211c-0.11-.51.01-1-2-1h-5c-1.02,0-1,0-1,1s-0.02,1,1,1h5c-4.07,2.2-12.84,6.28-19,9h-11c-1.02,0-1,0-1,1s-0.02,1,1,1h8l-5,6h-62l-2-6h50c1.02,0,1,0,1-1s0.02-1-1-1h-52c-6.12-2.72-16.96-7.8-21-10h99c1.02,0,1,0,1-1s0.02-1-1-1h-99c-2.01,0-1.89.49-2,1-0.35,1.6.95,2.24,4,4a179.086,179.086,0,0,0,19,9l2.81,7.22a1.858,1.858,0,0,0,1.52.78h62.01a1.878,1.878,0,0,0,1.46-.71l6.2-7.29a76.4,76.4,0,0,0,9.19-3.57c3.24-1.56,5.98-3.38,7.81-4.43C1532.07,2213.24,1533.35,2212.6,1533,2211Zm-78-4,5-18,7,17,13-14,3,14,43-32-48-23v9l-9-2,1-4-52,16Zm49.01-19.98a4,4,0,1,1,4-4A4.005,4.005,0,0,1,1504.01,2187.02Zm5-17.02a3.01,3.01,0,1,1-3,3.01A3,3,0,0,1,1509.01,2170Zm-5.01-4,4,2c-1.94.61-4,2.51-4,4.62,0,2.61,2.35,5.38,5,5.38a5.178,5.178,0,0,0,5-5,6.742,6.742,0,0,0-1-3l9,4-12.35,9.57c0-.09.35-0.49,0.35-0.57a6,6,0,0,0-12,0c0,2.68,2.46,5.4,5,6l-19,14-2-13Zm-6-3-18-3v-6Zm-5.98,5.5a4.52,4.52,0,1,1-4.52-4.48A4.515,4.515,0,0,1,1492.02,2168.5ZM1468,2160l16,3c-1.12,1.11-3,2.56-3,6,0,4.52,3.55,6,7,6,4.08,0,6-3.6,6-7a5.518,5.518,0,0,0-2-4l10,1-34,37-7.07-16.56Zm-31.5,8.03a2.48,2.48,0,1,1-2.51,2.48A2.5,2.5,0,0,1,1436.5,2168.03Zm-3.63-.3a4.391,4.391,0,0,0-.71,2.4,4.5,4.5,0,1,0,6.36-4.03L1467,2157l-13,46-33-32Z" transform="translate(-1414.94 -2151)"/>
</svg>
