<svg xmlns="http://www.w3.org/2000/svg" width="82.5" height="81.28" viewBox="0 0 82.5 81.28">
  <defs>
    <style>
      .cls-1 {
        fill: #e24014;
      }

      .cls-1, .cls-2, .cls-3 {
        fill-rule: evenodd;
      }

      .cls-2 {
        fill: #ffb503;
      }

      .cls-3 {
        fill: #4d4d4d;
      }
    </style>
  </defs>
  <path class="cls-1" d="M569.877,2173.1a34.493,34.493,0,1,1-48.79,0A34.476,34.476,0,0,1,569.877,2173.1Zm-7.383,6.74a24.054,24.054,0,1,1-34.025,0A24.041,24.041,0,0,1,562.494,2179.84Z" transform="translate(-511 -2163)"/>
  <path class="cls-2" d="M577.3,2218.87l14.3,14.3a6.5,6.5,0,1,1-9.193,9.19l-14.294-14.29Z" transform="translate(-511 -2163)"/>
  <path id="Rectangle_51_copy" data-name="Rectangle 51 copy" class="cls-3" d="M569.877,2173.1a34.493,34.493,0,1,1-48.79,0A34.476,34.476,0,0,1,569.877,2173.1Zm-1.284,1.28a32.68,32.68,0,1,1-46.222,0A32.669,32.669,0,0,1,568.593,2174.38Zm-4.815,4.17a25.871,25.871,0,1,1-36.593,0A25.859,25.859,0,0,1,563.778,2178.55Zm-1.284,1.29a24.054,24.054,0,1,1-34.025,0A24.041,24.041,0,0,1,562.494,2179.84Zm14.81,39.03,14.3,14.3a6.5,6.5,0,1,1-9.193,9.19l-14.294-14.29Zm0,2.83,12.881,12.88a4.5,4.5,0,0,1-6.364,6.37l-12.881-12.88Zm-44.852-38.25A21.935,21.935,0,0,1,548,2177.01v1.54a20.447,20.447,0,0,0-19.628,14.73l-1.482-.44A21.879,21.879,0,0,1,532.452,2183.45Z" transform="translate(-511 -2163)"/>
</svg>
