<svg xmlns="http://www.w3.org/2000/svg" width="89" height="48" viewBox="0 0 89 48">
  <defs>
    <style>
      .cls-1 {
        fill: #ffb503;
      }

      .cls-1, .cls-2, .cls-3 {
        fill-rule: evenodd;
      }

      .cls-2 {
        fill: #e24014;
      }

      .cls-3 {
        fill: #4d4d4d;
      }
    </style>
  </defs>
  <path class="cls-1" d="M799.55,996.023s2.966,1.86,2.225,4.467a39.046,39.046,0,0,1-2.225,5.58l-6.675,4.46-13.35,2.24-15.575,1.11-20.025-1.11-14.463-4.47-4.45-4.46,7.788,2.23,11.125,2.23,11.125,1.12,16.687-1.12,12.238-2.23,8.9-4.47Z" transform="translate(-715 -967)"/>
  <path class="cls-2" d="M717.225,989.325l6.675,6.7,6.675,3.349,7.787,2.228,8.9,2.24h17.8l10.013-1.12,7.787-1.12,7.788-2.228,5.562-2.233-1.112,3.351-8.9,4.46-12.238,2.24-8.9,1.11H750.6l-13.35-1.11-11.125-3.35-7.788-4.468L715,993.79Z" transform="translate(-715 -967)"/>
  <path id="Forma_1" data-name="Forma 1" class="cls-3" d="M732.018,978.025a2.14,2.14,0,0,1,3.027,0,0.945,0.945,0,1,0,1.335-1.338,4.029,4.029,0,0,0-5.7,0A0.945,0.945,0,0,0,732.018,978.025Zm8.158-4.764a2.139,2.139,0,0,1,3.026,0,0.945,0.945,0,0,0,1.336-1.337,4.027,4.027,0,0,0-5.7,0A0.945,0.945,0,0,0,740.176,973.261Zm0.506,12.224a0.945,0.945,0,0,0,1.335,1.338,2.139,2.139,0,0,1,3.027,0,0.945,0.945,0,0,0,1.335-1.338A4.028,4.028,0,0,0,740.682,985.485Zm4.357,9.615a0.945,0.945,0,0,0,1.336,0,2.137,2.137,0,0,1,3.026,0,0.945,0.945,0,1,0,1.336-1.338,4.025,4.025,0,0,0-5.7,0A0.949,0.949,0,0,0,745.039,995.1Zm18.257-2.258a0.943,0.943,0,0,0,1.335,0,2.138,2.138,0,0,1,3.027,0,0.945,0.945,0,0,0,1.336-1.338,4.025,4.025,0,0,0-5.7,0A0.947,0.947,0,0,0,763.3,992.842Zm-34.269-4.32a2.14,2.14,0,0,1,2.957.648,0.945,0.945,0,1,0,1.589-1.022,4.027,4.027,0,0,0-5.565-1.218A0.945,0.945,0,1,0,729.027,988.522Zm64.757,15.848a4,4,0,0,0-2.848,1.18,0.946,0.946,0,1,0,1.335,1.34,2.133,2.133,0,0,1,3.027,0,0.936,0.936,0,0,0,1.335,0,0.949,0.949,0,0,0,0-1.34A4.007,4.007,0,0,0,793.784,1004.37Zm-16.639-25.781a0.942,0.942,0,0,0,1.335,0,2.138,2.138,0,0,1,3.027,0,0.943,0.943,0,0,0,1.335,0,0.949,0.949,0,0,0,0-1.338,4.029,4.029,0,0,0-5.7,0A0.947,0.947,0,0,0,777.145,978.589Zm-3.825-4.506a2.14,2.14,0,0,1,3.027,0,0.945,0.945,0,1,0,1.335-1.338,4.023,4.023,0,0,0-5.7,0A0.945,0.945,0,1,0,773.32,974.083Zm8.154,11.9a0.944,0.944,0,1,0,1.6,1,2.14,2.14,0,0,1,2.949-.683,0.946,0.946,0,0,0,1-1.606A4.028,4.028,0,0,0,781.474,985.985Zm-27.5-8.552a2.138,2.138,0,0,1,3.027,0,0.943,0.943,0,0,0,1.335,0,0.947,0.947,0,0,0,0-1.338,4.023,4.023,0,0,0-5.7,0A0.945,0.945,0,0,0,753.978,977.433Zm3.833,3.139a0.944,0.944,0,0,0,1.336,0,2.137,2.137,0,0,1,3.026,0,0.945,0.945,0,1,0,1.336-1.338,4.021,4.021,0,0,0-5.7,0A0.948,0.948,0,0,0,757.811,980.572Zm42.678,14.42c2.328-2.158,3.511-4.483,3.511-6.914a9.279,9.279,0,0,0-3.228-6.649,7.963,7.963,0,0,0,.206-1.771c0-4.665-4.348-8.073-12.924-10.13C781.06,967.85,771.039,967,758.27,967c-12.149,0-22.324,1.056-29.424,3.055-8.289,2.334-12.491,5.914-12.491,10.64a10.149,10.149,0,0,0,1.988,5.675c-2.218,2.114-3.343,4.385-3.343,6.757,0,2.9,1.751,5.73,5.061,8.2,1.9,3.85,7.094,7.32,14.664,9.8a91.282,91.282,0,0,0,27.36,3.87c12.292,0,21.991-.99,28.829-2.94,7.89-2.25,11.891-5.79,11.891-10.52a11.007,11.007,0,0,0-2.348-6.416C800.469,995.08,800.478,995.036,800.489,994.992Zm1.622-6.914c0,1.946-1.042,3.866-3.1,5.706-6.474,5.8-21.343,9.546-37.879,9.546-11.084,0-21.491-1.67-29.3-4.684-7.068-2.731-11.261-6.356-11.642-10.022a32.021,32.021,0,0,0,8.483,6.086c8.211,4.238,18.724,6.57,29.6,6.57a64.492,64.492,0,0,0,30.011-7.1q1.346-.721,2.566-1.488a2.133,2.133,0,0,1,2.035.559,0.945,0.945,0,1,0,1.337-1.336,4.025,4.025,0,0,0-1.078-.772,21.205,21.205,0,0,0,6.938-7.713A6.994,6.994,0,0,1,802.111,988.078ZM758.27,968.891c33.738,0,40.82,5.856,40.82,10.767,0,4.057-4.484,8.984-11.7,12.859a62.579,62.579,0,0,1-29.119,6.872c-10.581,0-20.786-2.259-28.736-6.361-7.07-3.648-11.291-8.259-11.291-12.333C718.243,973.3,733.206,968.891,758.27,968.891Zm-41.382,24.236a6.538,6.538,0,0,1,1.465-3.95c0.651,4.319,5.135,8.275,12.8,11.233,8.024,3.1,18.672,4.81,29.983,4.81,14.625,0,28.052-2.92,35.839-7.625-2.185,2.565-6.208,4.925-11.7,6.795-7.559,2.57-17.29,3.99-27.4,3.99-14.838,0-28.388-3.02-35.736-7.91-0.249-.16-1.322-0.946-1.605-1.178C718.711,997.8,716.888,995.67,716.888,993.127ZM790.4,1010.24c-6.669,1.9-16.2,2.87-28.312,2.87a89.362,89.362,0,0,1-26.775-3.78,33.859,33.859,0,0,1-10.325-5.11c8.016,3.79,20,6.05,32.881,6.05,10.315,0,20.263-1.45,28.012-4.09,6.848-2.33,11.617-5.48,13.684-8.98a8.59,8.59,0,0,1,1.354,4.34C800.916,1005.33,797.377,1008.25,790.4,1010.24Z" transform="translate(-715 -967)"/>
</svg>
