<svg xmlns="http://www.w3.org/2000/svg" width="99.996" height="87.321" viewBox="0 0 71 62">
  <defs>
    <style>
      .cls-1 {
        fill: #e04015;
      }

      .cls-2 {
        fill: #e24014;
      }

      .cls-3 {
        fill: #ffb503;
      }

      .cls-3, .cls-4 {
        fill-rule: evenodd;
      }

      .cls-4 {
        fill: #4d4d4d;
      }
    </style>
  </defs>
  <ellipse class="cls-1" cx="50" cy="15.5" rx="3" ry="3.5"/>
  <ellipse class="cls-2" cx="42" cy="4.5" rx="3" ry="3.5"/>
  <ellipse class="cls-2" cx="39" cy="14.5" rx="3" ry="3.5"/>
  <circle class="cls-2" cx="29.5" cy="7.5" r="3.5"/>
  <path id="Rounded_Rectangle_1" data-name="Rounded Rectangle 1" class="cls-3" d="M884,967h66a2,2,0,0,1,0,4H884A2,2,0,0,1,884,967Z" transform="translate(-882 -931)"/>
  <path id="Forma_1" data-name="Forma 1" class="cls-4" d="M953,969.6a3.535,3.535,0,0,0-3.55-3.509h-63.9a3.506,3.506,0,1,0-.066,7.011c1.525,2.019,4.26,4.09,7.159,6.275,5,3.765,10.657,8.032,10.657,12.45V993h28.4V991.83c0-4.418,5.661-8.685,10.657-12.45,2.9-2.185,5.634-4.256,7.159-6.275A3.527,3.527,0,0,0,953,969.6Zm-67.45-1.17h63.9a1.17,1.17,0,1,1,0,2.34h-63.9A1.17,1.17,0,1,1,885.55,968.433Zm20.027,22.227a8.225,8.225,0,0,0-.28-1.17H929.7a8.363,8.363,0,0,0-.28,1.17H905.577Zm35.345-13.139c-3.837,2.891-8.029,6.056-10.164,9.629H904.242c-2.135-3.573-6.327-6.738-10.164-9.629a61.682,61.682,0,0,1-5.443-4.408h57.729A61.837,61.837,0,0,1,940.922,977.521Zm-47.089-12.6a1.176,1.176,0,0,0,1.184-1.17,10.6,10.6,0,0,1,10.65-10.528h2.366a1.17,1.17,0,1,0,0-2.34h-2.366a12.958,12.958,0,0,0-13.017,12.868A1.176,1.176,0,0,0,893.833,964.924Zm17.75-7.019h-5.916a5.89,5.89,0,0,0-5.917,5.849,1.184,1.184,0,0,0,2.367,0,3.533,3.533,0,0,1,3.55-3.509h5.916A1.17,1.17,0,1,0,911.583,957.905Zm-1.183-1.17a1.17,1.17,0,1,0,0-2.339h-4.733a9.424,9.424,0,0,0-9.467,9.358,1.184,1.184,0,0,0,2.367,0,7.067,7.067,0,0,1,7.1-7.019H910.4Zm1.183,4.679h-5.916a1.17,1.17,0,1,0,0,2.34h5.916A1.17,1.17,0,1,0,911.583,961.414Zm8.284-10.528a1.17,1.17,0,1,0,0,2.34h8.283a10.6,10.6,0,0,1,10.65,10.528,1.184,1.184,0,0,0,2.367,0,12.958,12.958,0,0,0-13.017-12.868h-8.283ZM931.7,963.754a1.184,1.184,0,0,0,2.367,0,5.89,5.89,0,0,0-5.917-5.849h-5.917a1.17,1.17,0,1,0,0,2.34h5.917A3.534,3.534,0,0,1,931.7,963.754Zm4.733,1.17a1.176,1.176,0,0,0,1.184-1.17,9.424,9.424,0,0,0-9.467-9.358h-7.1a1.17,1.17,0,1,0,0,2.339h7.1a7.067,7.067,0,0,1,7.1,7.019A1.176,1.176,0,0,0,936.433,964.924Zm-14.2-3.51a1.17,1.17,0,1,0,0,2.34h5.917a1.17,1.17,0,1,0,0-2.34h-5.917Zm-7.1,3.51a1.176,1.176,0,0,0,1.184-1.17c0-14.5-6.435-17.547-11.834-17.547a3.534,3.534,0,0,0-3.55,3.51,1.184,1.184,0,0,0,2.367,0,1.177,1.177,0,0,1,1.183-1.17c6.37,0,9.467,4.974,9.467,15.207A1.176,1.176,0,0,0,915.133,964.924Zm-17.75-11.7a1.176,1.176,0,0,0,1.184-1.17v-1.17a5.89,5.89,0,0,1,5.916-5.849c11.748,0,13.017,13.089,13.017,18.717a1.184,1.184,0,0,0,2.367,0c0-13.185-5.75-21.056-15.384-21.056a8.247,8.247,0,0,0-8.283,8.188v1.17A1.176,1.176,0,0,0,897.383,953.226Zm23.667-3.509a4.68,4.68,0,1,0-4.733-4.68A4.712,4.712,0,0,0,921.05,949.717Zm0-7.019a2.34,2.34,0,1,1-2.367,2.339A2.356,2.356,0,0,1,921.05,942.7Zm-8.875,1.169a5.264,5.264,0,1,0-5.325-5.264A5.3,5.3,0,0,0,912.175,943.867Zm0-8.188a2.925,2.925,0,1,1-2.958,2.924A2.943,2.943,0,0,1,912.175,935.679Zm14.792,10.528a4.733,4.733,0,1,0,4.733-4.679A4.711,4.711,0,0,0,926.967,946.207Zm4.733-2.34a2.34,2.34,0,1,1-2.367,2.34A2.357,2.357,0,0,1,931.7,943.867Zm-7.1-3.509a4.679,4.679,0,1,0-4.733-4.679A4.711,4.711,0,0,0,924.6,940.358Zm0-7.019a2.34,2.34,0,1,1-2.367,2.34A2.356,2.356,0,0,1,924.6,933.339Z" transform="translate(-882 -931)"/>
</svg>
