<?xml version='1.0' encoding='utf-8'?>
<!DOCTYPE svg PUBLIC '-//W3C//DTD SVG 1.1//EN' 'http://www.w3.org/Graphics/SVG/1.1/DTD/svg11.dtd'>
<svg version="1.1" xmlns="http://www.w3.org/2000/svg" viewBox="0 0 512 512" xmlns:xlink="http://www.w3.org/1999/xlink" enable-background="new 0 0 512 512" width="47" height="47">
  <g>
    <g>
      <path fill="#666" d="m501,253c-0.1-11.2-9.3-20.2-20.4-20.2-0.1,0-0.2,0-0.3,0-11.3,0.1-20.3,9.4-20.2,20.7 1.1,90.2-58.4,171.6-144.8,197.8-80.8,24.5-168.8-4.1-220.2-69.7l70.2,9.5c11.2,1.5 21.5-6.3 23-17.5 1.5-11.2-6.3-21.5-17.5-23l-116.9-15.8c-9.5-1-20.8,3.7-23,17.5l-15.7,116.7c-1.5,11.2 6.3,21.5 17.5,23 0.9,0.1 1.8,0.2 2.8,0.2 10.1,0 18.8-7.4 20.2-17.7l8.9-65.7c46.9,58.7 118.5,92.1 192.3,92.1 23.5,0 47.2-3.4 70.4-10.4 103.6-31.5 175-129.2 173.7-237.5z"/>
      <path fill="#666" d="m31.4,279.1c0.1,0 0.2,0 0.3,0 11.3-0.1 20.3-9.4 20.2-20.6-1.1-90.3 58.4-171.6 144.8-197.8 79.9-24.2 167,3.5 218.6,67.7l-68.8-9.3c-11.2-1.6-21.5,6.3-23,17.5-1.5,11.2 6.3,21.5 17.5,23l116.9,15.9c16.4,1.3 22.5-11.3 23-17.5l15.8-116.7c1.5-11.2-6.3-21.5-17.5-23-11.2-1.4-21.5,6.3-23,17.5l-9.1,67.1c-61.9-77-166.3-110.3-262.3-81.2-103.7,31.3-175.1,129-173.8,237.3 0.2,11.2 9.3,20.1 20.4,20.1z"/>
    </g>
  </g>
</svg>
