<svg xmlns="http://www.w3.org/2000/svg" width="28.906" height="39.781" viewBox="0 0 28.906 39.781">
  <defs>
    <style>
      .cls-1 {
        fill-rule: evenodd;
      }
    </style>
  </defs>
  <path fill="#666" d="M32.436,31.1c-0.927,1.345-1.448,2.139-1.448,2.938a5.964,5.964,0,0,1-2.7,4.75c-0.043,1.064-.2,3.657-0.2,3.657-0.021.715-.4,2.244-2.989,3.1a4.306,4.306,0,0,1-1.181,1.15A1.836,1.836,0,0,1,22.9,47H20.1a1.841,1.841,0,0,1-1.021-.309,4.3,4.3,0,0,1-1.181-1.15c-2.568-.844-2.96-2.354-2.989-3.092v0s-0.159-2.595-.2-3.659a5.963,5.963,0,0,1-2.7-4.75c0-.8-0.521-1.593-1.44-2.926A16.345,16.345,0,0,1,7.044,21.055c0-7.62,6.484-13.822,14.454-13.824s14.455,6.2,14.455,13.823A16.319,16.319,0,0,1,32.436,31.1ZM21.5,10.846c-5.955,0-10.8,4.582-10.8,10.209a12.862,12.862,0,0,0,2.876,8c1.08,1.567,2.088,3.029,2.088,4.982a2.681,2.681,0,0,0,1.369,1.948h8.932a2.685,2.685,0,0,0,1.369-1.948c0-1.953,1.008-3.415,2.075-4.963a12.887,12.887,0,0,0,2.89-8.022C32.3,15.425,27.454,10.846,21.5,10.846Zm0,23.2a2.259,2.259,0,1,1,2.284-2.259A2.282,2.282,0,0,1,21.5,34.041Zm1.226-7.328a1.032,1.032,0,0,1-1.226,1.02,1.03,1.03,0,0,1-1.225-1.02l-0.864-6.447a10.6,10.6,0,0,1-.111-1.294v-3.2a1.945,1.945,0,0,1,2.2-2.122,1.945,1.945,0,0,1,2.2,2.122v3.2a10.794,10.794,0,0,1-.11,1.294Z" transform="translate(-7.031 -7.219)"/>
</svg>
