<?xml version="1.0" encoding="iso-8859-1"?>
<!-- Generator: Adobe Illustrator 19.0.0, SVG Export Plug-In . SVG Version: 6.00 Build 0)  -->
<svg version="1.1" id="Capa_1" xmlns="http://www.w3.org/2000/svg" xmlns:xlink="http://www.w3.org/1999/xlink" x="0px" y="0px"
	 viewBox="0 0 490 490" style="enable-background:new 0 0 490 490;" xml:space="preserve" width="100" height="100">
<g>
	<path fill="#fff" d="M245,490c135.31,0,245-109.69,245-245S380.31,0,245,0S0,109.69,0,245S109.69,490,245,490z M245,30.625
		c118.206,0,214.375,96.168,214.375,214.375c0,118.206-96.169,214.375-214.375,214.375S30.625,363.206,30.625,245
		C30.625,126.793,126.794,30.625,245,30.625z"/>
	<polygon fill="#fff" points="358.558,169.529 335.948,148.863 202.532,294.811 154.8,238.51 131.442,258.309 201.664,341.137 	"/>
</g>
</svg>
