<svg xmlns="http://www.w3.org/2000/svg" width="14" height="19" viewBox="0 0 14 19">
  <defs>
    <style>
      .cls-1 {
        fill: #666;
        fill-rule: evenodd;
      }
    </style>
  </defs>
  <path id="_" data-name="" class="cls-1" d="M550.979,2639.81a7.3,7.3,0,0,0,.522,2.56v0.05a0.139,0.139,0,0,0,.053.1l0.052,0.1,6.373,9.38,6.373-9.33,0.052-.05,0.053-.1v-0.1l0.052-.05a7.106,7.106,0,0,0,.47-2.56,6.483,6.483,0,0,0-2.037-4.81,7.158,7.158,0,0,0-9.926,0,6.483,6.483,0,0,0-2.037,4.81h0Zm1.03-.08a6.091,6.091,0,0,0,.447,2.16v0.04a0.13,0.13,0,0,0,.045.09l0.045,0.08,5.463,7.9,5.462-7.85,0.045-.05,0.045-.08v-0.09l0.045-.04a5.915,5.915,0,0,0,.4-2.16,5.414,5.414,0,0,0-1.747-4.05,6.225,6.225,0,0,0-8.507,0,5.417,5.417,0,0,0-1.746,4.05h0Zm3,0.27a2.919,2.919,0,0,1,.861-2.14,3.081,3.081,0,0,1,4.271,0A3.027,3.027,0,1,1,555.011,2640Z" transform="translate(-550.969 -2633)"/>
</svg>
