<svg xmlns="http://www.w3.org/2000/svg" width="99.998" height="99.998" viewBox="0 0 67 67">
  <defs>
    <style>
      .cls-1 {
        fill: #e24014;
      }

      .cls-1, .cls-2, .cls-3 {
        fill-rule: evenodd;
      }

      .cls-2 {
        fill: #ffb503;
      }

      .cls-3 {
        fill: #4d4d4d;
      }
    </style>
  </defs>
  <path class="cls-1" d="M44.358,11.377c4.251,0,8.724,3.676,8.724,8.211s-4.473,8.21-8.724,8.21a7.966,7.966,0,0,1-7.7-8.21A7.967,7.967,0,0,1,44.358,11.377Z"/>
  <path class="cls-2" d="M26.465,21.49l4.02,4.1L33.5,30.712l5.025,4.1H41.54l5.025-2.049L49.58,34.81v3.074L52.6,38.909l3.015,1.024v2.049L53.6,45.057H46.565L39.53,44.032l5.025,6.148,2.01,5.123s0.754,3.33-1,3.074A7.813,7.813,0,0,0,41.54,59.4L33.5,46.081l-2.01-2.049-7.035,3.074L15.41,51.2,12.395,50.18,11.39,48.131V45.057l4.02-2.05V41.983l-1.005-4.1,1.005-2.049,2.01-1.025,1.005-2.049L15.41,31.736l-3.015-3.074V25.589l3.015-2.049,6.03,2.049,2.01-2.049Z"/>
  <path class="cls-3" d="M57.188,9.811A33.5,33.5,0,0,0,9.812,57.188,33.5,33.5,0,1,0,57.188,9.811ZM55.653,55.653A31.33,31.33,0,0,1,11.347,11.346,31.33,31.33,0,0,1,55.653,55.653Zm0.186-17.04a3.379,3.379,0,0,0-2.281-1.254l-2.123-.234a3.4,3.4,0,0,0-.146-0.8l-0.69-2.21a3.4,3.4,0,0,0-4.256-2.235l-5.285,1.631-6.205-2.745c-0.005-.011-0.01-0.021-0.015-0.032l-5.108-9.307a3.405,3.405,0,0,0-4.617-1.345L23.084,21.2A3.406,3.406,0,0,0,21.378,24.8L16.355,22.58a3.4,3.4,0,0,0-4.486,1.734L10.932,26.43a3.406,3.406,0,0,0,1.737,4.488L18.554,33.5l-1.817-.2A3.4,3.4,0,0,0,12.983,36.3l-0.254,2.3a3.4,3.4,0,0,0,1.556,3.242l-2.636.822a3.4,3.4,0,0,0-2.234,4.259l0.69,2.21a3.4,3.4,0,0,0,4.259,2.234l18.273-5.7,6.926,12.619a3.4,3.4,0,0,0,4.617,1.345l1.013-.556h0l1.013-.556A3.4,3.4,0,0,0,47.555,53.9l-4.694-8.551,9.7,1.07h0a3.414,3.414,0,0,0,.38.021,3.4,3.4,0,0,0,3.374-3.028l0.127-1.15h0l0.127-1.15A3.377,3.377,0,0,0,55.839,38.613Zm-8.852-4.66a1.232,1.232,0,0,1,1.541.808l0.02,0.064L43.782,36.28l-3.193-.352ZM27.828,22.471l3.759,6.848-1.962-.868-3.53-6.431,0.063-.035A1.232,1.232,0,0,1,27.828,22.471Zm-4.186,2.3a1.231,1.231,0,0,1,.486-1.67l0.064-.035L26.354,27l-1.962-.868Zm-9.106-.227a1.219,1.219,0,0,1,.941.022L37.9,34.486l-1.9.585L13.825,25.258l0.029-.066A1.221,1.221,0,0,1,14.536,24.542Zm-0.991,4.389a1.231,1.231,0,0,1-.627-1.623l0.029-.066,16.965,7.507-4.126-.456Zm2.05,6.784a1.22,1.22,0,0,1,.767-0.27,1.2,1.2,0,0,1,.137.008L53.32,39.517a1.229,1.229,0,0,1,1.087,1.357l-0.008.072L15.133,36.612l0.008-.072A1.222,1.222,0,0,1,15.594,35.715Zm-4.021,9.627a1.223,1.223,0,0,1,.723-0.6l6.486-2.023c0.017-.005.032-0.012,0.049-0.018l3.237,0.357L11.51,46.35l-0.021-.069A1.223,1.223,0,0,1,11.573,45.343ZM13.718,49.3a1.23,1.23,0,0,1-1.541-.808l-0.022-.069,15.183-4.737c0.034-.011.067-0.023,0.1-0.037l3.244,0.358ZM42.2,57.833a1.222,1.222,0,0,1-.734-0.589L34.752,45.01l1.269-.4L43.2,57.7l-0.064.035A1.219,1.219,0,0,1,42.2,57.833Zm3.452-2.887a1.23,1.23,0,0,1-.486,1.67l-0.063.035L38.645,44.885l1.582,0.174ZM53.7,44a1.22,1.22,0,0,1-.9.263h0L15.975,40.2a1.231,1.231,0,0,1-1.088-1.357l0.008-.072L54.162,43.1l-0.008.072A1.221,1.221,0,0,1,53.7,44ZM44.5,29.954a9.768,9.768,0,1,0-9.768-9.768A9.779,9.779,0,0,0,44.5,29.954Zm0-17.365a7.6,7.6,0,1,1-7.6,7.6A7.606,7.606,0,0,1,44.5,12.589Zm0,4.63a2.97,2.97,0,0,1,2.966,2.967,1.085,1.085,0,0,0,2.171,0A5.143,5.143,0,0,0,44.5,15.049,1.085,1.085,0,1,0,44.5,17.22Zm0,8.1a1.085,1.085,0,0,0,0-2.171,2.943,2.943,0,0,1-2.119-.891,1.085,1.085,0,0,0-1.551,1.519A5.1,5.1,0,0,0,44.5,25.324Z"/>
</svg>
