<svg xmlns="http://www.w3.org/2000/svg" width="100" height="104.762" viewBox="0 0 63 66">
  <defs>
    <style>
      .cls-1 {
        fill: #dddddc;
      }

      .cls-1, .cls-3 {
        fill-rule: evenodd;
      }

      .cls-2 {
        fill: #ffb503;
      }

      .cls-3 {
        fill: #4d4d4d;
      }
    </style>
  </defs>
  <path class="cls-1" d="M607.833,974.157s-17.111-2.7-18.666-4.631,6.611,20.456,17.5,22C606.667,991.526,601.222,978.017,607.833,974.157Z" transform="translate(-588 -929)"/>
  <ellipse class="cls-2" cx="28.016" cy="37.625" rx="25.672" ry="5.188"/>
  <path id="Forma_1" data-name="Forma 1" class="cls-3" d="M616.029,959.22c-11.267,0-28.031,2.033-28.031,7.636v0.157a28.032,28.032,0,0,0,56.063,0v-0.157C644.061,961.253,627.3,959.22,616.029,959.22Zm0,2.325c1.837,0,3.561.048,5.205,0.123a4.446,4.446,0,0,0-1.521,1.193l1.792,1.485a1.789,1.789,0,0,1,2.867,0l1.792-1.485a4.537,4.537,0,0,0-1.113-.948c10.977,0.936,16.681,3.456,16.681,4.944,0,1.854-8.827,5.311-25.7,5.311-9.6,0-16.584-1.12-20.832-2.425a1.763,1.763,0,0,1,2.387.416l1.792-1.485a4.08,4.08,0,0,0-6.452,0l0.575,0.477c-2.088-.818-3.173-1.651-3.173-2.294C590.326,965,599.154,961.545,616.029,961.545Zm0,31.125a25.718,25.718,0,0,1-25.488-22.409c5.111,3.047,16.895,4.233,25.488,4.233s20.378-1.186,25.49-4.233A25.721,25.721,0,0,1,616.029,992.67Zm6.013-22.833,1.793,1.484a1.788,1.788,0,0,1,2.866,0l1.793-1.484A4.08,4.08,0,0,0,622.042,969.837Zm6.989-1.163,1.792,1.485a1.789,1.789,0,0,1,2.867,0l1.792-1.485A4.079,4.079,0,0,0,629.031,968.674Zm9.317-.84,1.793-1.485a4.081,4.081,0,0,0-6.453,0l1.793,1.485A1.789,1.789,0,0,1,638.348,967.834Zm-6.988-1.163,1.793-1.485a4.081,4.081,0,0,0-6.453,0l1.793,1.485A1.789,1.789,0,0,1,631.36,966.671Zm-6.988,1.163,1.792-1.485a4.08,4.08,0,0,0-6.452,0l1.792,1.485A1.79,1.79,0,0,1,624.372,967.834Zm-6.988-1.163,1.792-1.485a4.08,4.08,0,0,0-6.452,0l1.792,1.485A1.79,1.79,0,0,1,617.384,966.671Zm-3.5,3.166,1.793,1.484a1.788,1.788,0,0,1,2.866,0l1.793-1.484A4.08,4.08,0,0,0,613.889,969.837Zm-6.988,0,1.793,1.484a1.788,1.788,0,0,1,2.866,0l1.793-1.484A4.08,4.08,0,0,0,606.9,969.837Zm-4.031.322a1.788,1.788,0,0,1,2.866,0l1.793-1.485a4.081,4.081,0,0,0-6.453,0Zm6.361-3.488,1.792-1.485a4.08,4.08,0,0,0-6.452,0l1.792,1.485A1.79,1.79,0,0,1,609.231,966.671Zm-9.318,0,1.792-1.485a4.08,4.08,0,0,0-6.452,0l1.792,1.485A1.79,1.79,0,0,1,599.913,966.671Zm23.879-28.7a4.4,4.4,0,0,0-1.274-1.738,2.117,2.117,0,0,1-.582-0.744L649.9,931.3l-0.346-2.3-27.275,4.084-1.249-1.5a4.328,4.328,0,0,0-1.329,1.889l-2.241.335a2.278,2.278,0,0,1,.4-0.435l-1.487-1.789a4.207,4.207,0,0,0-1.516,2.614l-2.368.355a1.944,1.944,0,0,1,.712-1.18l-1.486-1.789a4.151,4.151,0,0,0-1.587,3.22c0,0.035.011,0.068,0.012,0.1l-2.272.34a1.58,1.58,0,0,1-.069-0.442,1.873,1.873,0,0,1,.743-1.43l-1.486-1.789a4.151,4.151,0,0,0-1.587,3.22,3.991,3.991,0,0,0,.091.788l-2.592.387,0.172,1.149-0.113,1.157,4.6,0.448a1.644,1.644,0,0,1,.176.72,1.878,1.878,0,0,1-.743,1.431,4.061,4.061,0,0,0,0,6.441,1.748,1.748,0,0,1,0,2.86,4.061,4.061,0,0,0,0,6.441l1.486-1.789a1.749,1.749,0,0,1,0-2.861,4.063,4.063,0,0,0,0-6.441,1.748,1.748,0,0,1,0-2.86,4.15,4.15,0,0,0,1.586-3.22,3.9,3.9,0,0,0-.056-0.483l2.353,0.229a1.548,1.548,0,0,1,.032.254,1.876,1.876,0,0,1-.744,1.43,4.063,4.063,0,0,0,0,6.441,1.746,1.746,0,0,1,0,2.86,4.063,4.063,0,0,0,0,6.441l1.487-1.789a1.748,1.748,0,0,1,0-2.86,4.063,4.063,0,0,0,0-6.441,1.749,1.749,0,0,1,0-2.861,4.153,4.153,0,0,0,1.586-3.22c0-.008,0-0.015,0-0.023l2.307,0.224a1.917,1.917,0,0,1-.719,1.229,4.063,4.063,0,0,0,0,6.441,1.748,1.748,0,0,1,0,2.86,4.063,4.063,0,0,0,0,6.441l1.486-1.789a1.748,1.748,0,0,1,0-2.86,4.061,4.061,0,0,0,0-6.441,1.748,1.748,0,0,1,0-2.86,4.183,4.183,0,0,0,1.538-2.794l2.233,0.217a2.1,2.1,0,0,1-.6.787,4.063,4.063,0,0,0,0,6.441,1.748,1.748,0,0,1,0,2.86,4.063,4.063,0,0,0,0,6.441l1.486-1.789a1.748,1.748,0,0,1,0-2.86,4.061,4.061,0,0,0,0-6.441,1.748,1.748,0,0,1,0-2.86A4.259,4.259,0,0,0,624,940.336l26.776,2.608L651,940.63Zm-3.112-.3-1.775-.173a4.488,4.488,0,0,0-1.047-1.263c-0.045-.036-0.076-0.078-0.117-0.116l1.854-.278A4.2,4.2,0,0,0,620.68,937.67Zm-6.994-.943,1.489-.223a4.221,4.221,0,0,0,.413.671l-1.651-.161C613.861,936.913,613.772,936.821,613.686,936.727Z" transform="translate(-588 -929)"/>
</svg>